<svg width="119" height="29" viewBox="0 0 119 29" fill="none" xmlns="http://www.w3.org/2000/svg">
<path d="M118.807 21.5724C118.807 22.8922 117.737 23.9621 116.417 23.9621C115.097 23.9621 114.027 22.8922 114.027 21.5724C114.027 20.2525 115.097 19.1826 116.417 19.1826C117.737 19.1826 118.807 20.2525 118.807 21.5724Z" fill="#FF6746"/>
<path d="M94.137 23.9621H98.2706V4.13363L94.137 0V23.9621Z" fill="#2F2F3D"/>
<path fill-rule="evenodd" clip-rule="evenodd" d="M51.7222 12.5947H44.6626V9.1069H56.7768V11.9642L49.7172 20.4744H56.791V23.9621H44.6626V21.1049L51.7222 12.5947Z" fill="#2F2F3D"/>
<path fill-rule="evenodd" clip-rule="evenodd" d="M66.0735 12.5624C63.6191 12.5624 61.8107 14.4237 61.8107 16.5022C61.8107 18.5807 63.6191 20.4421 66.0735 20.4421C68.5278 20.4421 70.3363 18.5807 70.3363 16.5022C70.3363 14.4237 68.5278 12.5624 66.0735 12.5624ZM57.8708 16.5022C57.8708 12.0529 61.6434 8.62249 66.0735 8.62249C70.5036 8.62249 74.2762 12.0529 74.2762 16.5022C74.2762 20.9515 70.5036 24.382 66.0735 24.382C61.6434 24.382 57.8708 20.9515 57.8708 16.5022Z" fill="#2F2F3D"/>
<path fill-rule="evenodd" clip-rule="evenodd" d="M7.65367 12.6269C5.6026 12.6269 3.93987 14.2897 3.93987 16.3408V23.9621H0V16.3408C0 12.1137 3.42667 8.68708 7.65367 8.68708H8.23497V12.6269H7.65367Z" fill="#2F2F3D"/>
<path fill-rule="evenodd" clip-rule="evenodd" d="M76.1815 16.3246C76.1815 12.0887 79.6082 8.65479 83.8352 8.65479C88.0622 8.65479 91.4889 12.0887 91.4889 16.3246V23.9621H87.549V16.3246C87.549 14.2692 85.8863 12.603 83.8352 12.603C81.7841 12.603 80.1214 14.2692 80.1214 16.3246V23.9621H76.1815V16.3246Z" fill="#2F2F3D"/>
<path fill-rule="evenodd" clip-rule="evenodd" d="M43.1979 17.9878C43.595 15.9538 43.1424 13.8616 41.9562 12.1561C40.7718 10.4532 38.9573 9.27749 36.9131 8.84188C34.87 8.4065 32.7238 8.73635 30.9185 9.77556C29.1106 10.8163 27.769 12.4993 27.2126 14.495C26.6553 16.4937 26.9398 18.6166 27.9924 20.4084C29.0426 22.196 30.7645 23.5 32.7718 24.0801C34.7775 24.6597 36.9423 24.4814 38.8196 23.5753C40.6762 22.6792 42.1295 21.1282 42.8496 19.2149H38.2587C37.9334 19.5388 37.5461 19.8152 37.107 20.0271C36.11 20.5084 34.9451 20.6071 33.8656 20.2951C32.7876 19.9835 31.9088 19.2967 31.3894 18.4126C31.3081 18.2742 31.2363 18.1324 31.1741 17.9878L43.1979 17.9878ZM36.092 12.6952C34.9881 12.46 33.8359 12.6422 32.8841 13.1901C32.0714 13.6579 31.4711 14.3525 31.1472 15.1459H39.1246C39.0199 14.8893 38.8854 14.6411 38.7217 14.4057C38.1304 13.5555 37.1947 12.9302 36.092 12.6952Z" fill="#2F2F3D"/>
<path fill-rule="evenodd" clip-rule="evenodd" d="M25.404 17.9878C25.8011 15.9538 25.3485 13.8616 24.1623 12.1561C22.9779 10.4532 21.1633 9.27749 19.1192 8.84188C17.0761 8.4065 14.9299 8.73635 13.1246 9.77556C11.3166 10.8163 9.97505 12.4993 9.41864 14.495C8.86135 16.4937 9.14583 18.6166 10.1985 20.4084C11.2487 22.196 12.9706 23.5 14.9778 24.0801C16.9836 24.6597 19.1483 24.4814 21.0257 23.5753C22.8823 22.6792 24.3356 21.1282 25.0557 19.2149H20.4648C20.1394 19.5388 19.7522 19.8152 19.3131 20.0271C18.3161 20.5084 17.1512 20.6071 16.0717 20.2951C14.9937 19.9835 14.1149 19.2967 13.5955 18.4126C13.5142 18.2742 13.4424 18.1324 13.3802 17.9878L25.404 17.9878ZM18.298 12.6952C17.1942 12.46 16.042 12.6422 15.0902 13.1901C14.2775 13.6579 13.6772 14.3525 13.3532 15.1459H21.3307C21.226 14.8893 21.0915 14.6411 20.9278 14.4057C20.3365 13.5555 19.4008 12.9302 18.298 12.6952Z" fill="#2F2F3D"/>
<path d="M99.8324 9.1069H104.165L108.12 17.7567L112.076 9.1069H116.408L107.311 29H102.979L105.954 22.4935L99.8324 9.1069Z" fill="#2F2F3D"/>
</svg>
